<svg width="16" height="16" xmlns="http://www.w3.org/2000/svg">
 <!-- Generator: Sketch 42 (36781) - http://www.bohemiancoding.com/sketch -->
 <title>Shape</title>
 <desc>Created with Sketch.</desc>

 <g>
  <title>background</title>
  <rect fill="none" id="canvas_background" height="18" width="18" y="-1" x="-1"/>
 </g>
 <g>
  <title>Layer 1</title>
  <g fill-rule="evenodd" fill="none" id="Symbols">
   <g fill="#000000" id="entypo/brush">
    <path fill="#ffffff" id="Shape" d="m2.2704,10.9176c-1.1992,1.1792 -0.1864,2.3888 -1.78,4.1832c-0.7192,0.8104 2.9608,0.5632 4.7832,-1.2296c0.7736,-0.76 0.5552,-1.868 -0.2744,-2.6832c-0.828,-0.816 -1.9552,-1.0304 -2.7288,-0.2704l0,0zm13.2888,-10.22c-0.616,-0.6048 -7.4288,4.8552 -9.4576,6.8488c-1.0064,0.9896 -1.3424,1.52 -1.6504,1.9168c-0.1344,0.172 0.0432,0.2256 0.1224,0.2664c0.3984,0.2024 0.6776,0.392 1.0384,0.7464c0.36,0.3544 0.5528,0.6288 0.7592,1.02c0.0416,0.0792 0.096,0.2528 0.2704,0.1216c0.404,-0.3032 0.944,-0.6336 1.9504,-1.6232c2.028,-1.9944 7.5824,-8.6928 6.9672,-9.2968l0,0z"/>
   </g>
  </g>
 </g>
</svg>