<svg width="16" height="14" xmlns="http://www.w3.org/2000/svg">
 <!-- Generator: Sketch 42 (36781) - http://www.bohemiancoding.com/sketch -->
 <title>Shape</title>
 <desc>Created with Sketch.</desc>

 <g>
  <title>background</title>
  <rect fill="none" id="canvas_background" height="16" width="18" y="-1" x="-1"/>
 </g>
 <g>
  <title>Layer 1</title>
  <g fill-rule="evenodd" fill="none" id="Symbols">
   <g stroke="null" fill="#000000" id="entypo/camera">
    <path fill="#ffffff" stroke="#ffffff" id="Shape" d="m7.986436,5.107221c-1.253536,0 -2.26874,1.0648 -2.26874,2.376c0,1.3128 1.015968,2.3768 2.26874,2.3768c1.252772,0 2.269504,-1.064 2.269504,-2.3768c0,-1.3112 -1.015968,-2.376 -2.269504,-2.376l0,0zm6.050738,-2.376l-1.814992,0c-0.249791,0 -0.518678,-0.2024 -0.597359,-0.4504l-0.469026,-1.4744c-0.079444,-0.248 -0.347568,-0.4504 -0.597359,-0.4504l-5.143242,0c-0.249791,0 -0.518678,0.2024 -0.597359,0.4504l-0.469026,1.4744c-0.079444,0.248 -0.348332,0.4504 -0.597359,0.4504l-1.814992,0c-0.831871,0 -1.512494,0.7128 -1.512494,1.584l0,7.1288c0,0.8712 0.680622,1.584 1.512494,1.584l12.101476,0c0.831871,0 1.512494,-0.7128 1.512494,-1.584l0,-7.1288c0,-0.8712 -0.681386,-1.584 -1.513257,-1.584l0,0zm-6.050738,8.7128c-2.088463,0 -3.781234,-1.7728 -3.781234,-3.9608c0,-2.1864 1.692771,-3.96 3.781234,-3.96c2.088463,0 3.781998,1.7736 3.781998,3.96c0,2.188 -1.693534,3.9608 -3.781998,3.9608l0,0zm5.521365,-6.0208c-0.291804,0 -0.528609,-0.2488 -0.528609,-0.5544c0,-0.3056 0.236805,-0.5544 0.528609,-0.5544c0.292568,0 0.529373,0.2488 0.529373,0.5544c0,0.3056 -0.236805,0.5544 -0.529373,0.5544l0,0z"/>
   </g>
  </g>
 </g>
</svg>